<svg version="1.1" id="Layer_1" xmlns="http://www.w3.org/2000/svg" xmlns:xlink="http://www.w3.org/1999/xlink" x="0px" y="0px"
	 width="100%" viewBox="0 0 448 192" enable-background="new 0 0 448 192" xml:space="preserve">
<path fill="#000000" opacity="1.000000" stroke="none" 
	d="
M449.000000,110.555832 
	C446.703522,112.130852 444.263733,112.344528 441.734070,112.339188 
	C421.957458,112.297447 402.180756,112.311722 382.404083,112.294571 
	C381.077667,112.293419 379.719574,112.336212 378.431946,112.079323 
	C376.076355,111.609360 374.523987,110.091187 374.374054,107.665703 
	C374.215240,105.096771 375.312042,103.071152 378.018768,102.473770 
	C379.623352,102.119637 381.301300,101.954597 382.946808,101.951073 
	C402.224731,101.909760 421.502930,101.881447 440.780670,101.950333 
	C443.244812,101.959137 445.706909,102.538857 448.584961,102.927048 
	C449.000000,105.370560 449.000000,107.741112 449.000000,110.555832 
z"/>
<path fill="#000000" opacity="1.000000" stroke="none" 
	d="
M182.548798,102.577087 
	C182.006729,97.474457 184.933350,95.997108 188.878723,95.912041 
	C195.701920,95.764923 202.531189,95.910149 209.355209,95.784714 
	C211.151291,95.751686 214.026474,96.688438 214.138397,93.752815 
	C214.249359,90.842873 211.436005,91.284889 209.569901,91.408241 
	C193.207428,92.489723 192.629166,86.823181 192.870468,73.906616 
	C192.892227,72.741508 192.839081,71.573235 192.903030,70.410957 
	C193.346573,62.348751 196.287842,59.102665 204.245773,58.917328 
	C214.895309,58.669308 225.559296,58.679516 236.209076,58.925224 
	C243.951370,59.103851 246.948792,62.369019 247.218597,70.115181 
	C247.340225,73.607185 247.358459,77.112099 247.211578,80.602234 
	C246.899963,88.006760 243.651993,91.160309 236.343674,91.334770 
	C234.346817,91.382446 232.345718,91.292580 230.350861,91.372581 
	C228.769897,91.435982 226.599060,90.974297 226.518585,93.408882 
	C226.425079,96.236832 228.837234,95.734253 230.546967,95.762352 
	C236.039948,95.852623 241.534927,95.817627 247.029099,95.841843 
	C248.527176,95.848450 250.032318,95.809502 251.521561,95.938072 
	C254.689346,96.211555 257.821564,97.023109 257.826233,100.893204 
	C257.831055,104.899590 254.860245,106.182159 251.332840,106.186859 
	C230.521408,106.214577 209.709915,106.204735 188.898483,106.175339 
	C186.309784,106.171684 183.901474,105.630775 182.548798,102.577087 
M214.563766,81.023254 
	C220.228317,81.013702 225.893570,80.944145 231.557190,81.012131 
	C236.826584,81.075378 235.412689,77.216194 235.650620,74.287033 
	C235.897552,71.247215 235.392349,69.130493 231.480301,69.246414 
	C224.488937,69.453575 217.480408,69.485374 210.491943,69.233391 
	C206.406982,69.086098 204.824799,70.456970 204.940079,74.637367 
	C205.050262,78.633469 205.440506,81.735573 210.592270,81.034004 
	C211.573441,80.900391 212.588913,81.018532 214.563766,81.023254 
z"/>
<path fill="#000000" opacity="1.000000" stroke="none" 
	d="
M220.987183,123.719864 
	C223.982208,123.717911 226.500244,123.909348 228.973099,123.657387 
	C231.220963,123.428352 235.195663,124.972595 235.189514,121.674301 
	C235.182388,117.851280 231.040604,119.486168 228.709946,119.433678 
	C219.720261,119.231224 210.723587,119.340874 201.729507,119.332321 
	C200.730225,119.331375 199.730896,119.321571 198.731644,119.310356 
	C195.410614,119.273079 193.098526,117.797371 193.207687,114.312065 
	C193.307922,111.112022 195.609161,109.714066 198.662048,109.707420 
	C210.987045,109.680580 223.315353,109.532234 235.635986,109.767006 
	C243.021454,109.907738 247.293442,114.415375 247.339386,121.266365 
	C247.386841,128.342438 243.039734,132.931107 235.523804,133.243500 
	C229.371353,133.499237 223.200958,133.324814 217.038513,133.337616 
	C214.373611,133.343155 211.702362,133.227890 209.045853,133.377701 
	C207.054626,133.489990 203.866272,132.428329 203.725113,135.425552 
	C203.572037,138.675812 206.859482,137.604126 208.773666,137.665558 
	C213.931778,137.831085 219.098434,137.737457 224.261688,137.734085 
	C230.424271,137.730057 236.586868,137.696991 242.749405,137.707718 
	C246.267365,137.713837 249.150803,138.700485 249.229980,142.893829 
	C249.306564,146.948227 246.304306,147.953308 243.163132,147.980484 
	C230.507172,148.089951 217.849228,148.006927 205.192413,147.927689 
	C203.710892,147.918427 202.211212,147.580841 200.755539,147.242432 
	C195.477615,146.015411 191.863342,141.544418 191.680984,136.116867 
	C191.496094,130.613800 194.250763,126.512192 199.639236,124.810562 
	C206.468277,122.654030 213.539612,124.126625 220.987183,123.719864 
z"/>
<path fill="#000000" opacity="1.000000" stroke="none" 
	d="
M427.213623,70.919662 
	C425.833344,68.420128 423.656006,68.987579 421.738953,68.971413 
	C413.074829,68.898315 404.409790,68.929115 395.745392,68.877457 
	C393.919281,68.866577 392.078766,68.778053 390.272552,68.526558 
	C387.681519,68.165794 385.890045,66.733147 385.838470,63.973892 
	C385.782623,60.987759 387.642578,59.287003 390.427979,59.012043 
	C393.566650,58.702206 396.749573,58.797588 399.913330,58.792507 
	C408.577911,58.778591 417.246948,58.635853 425.905945,58.861401 
	C434.785461,59.092693 439.317841,63.351883 439.336273,70.935661 
	C439.351746,77.300919 436.312469,81.372963 429.920074,82.508240 
	C421.011841,84.090340 411.967621,82.817627 402.998962,83.267174 
	C400.599396,83.387444 396.313110,81.803825 396.312469,85.268616 
	C396.311737,89.280716 400.760345,87.517517 403.232330,87.567749 
	C413.558990,87.777626 423.892761,87.704247 434.223145,87.628769 
	C437.869110,87.602127 440.746216,88.647079 440.696838,92.732246 
	C440.649994,96.609711 437.787903,97.422333 434.389038,97.403610 
	C421.559052,97.332916 408.728058,97.432381 395.898346,97.340454 
	C388.637238,97.288429 383.779266,92.447701 383.758240,85.550049 
	C383.737244,78.661453 388.609802,73.761009 395.842896,73.670280 
	C404.506226,73.561623 413.171997,73.664810 421.836517,73.627625 
	C423.938629,73.618599 426.333679,74.093414 427.213623,70.919662 
z"/>
<path fill="#000000" opacity="1.000000" stroke="none" 
	d="
M150.611206,89.762016 
	C153.927124,90.704620 154.870651,92.845657 154.498627,95.619171 
	C154.078354,98.752319 151.610077,99.675911 149.020096,99.662758 
	C134.562286,99.589386 120.099625,100.431480 105.646996,99.503029 
	C102.451019,99.297714 100.700493,97.467545 100.839905,94.315788 
	C100.968330,91.412346 102.773300,89.572617 105.710060,89.756241 
	C109.835030,90.014153 110.989609,88.089462 110.687546,84.360123 
	C110.486603,81.879181 110.541740,79.361687 110.684937,76.872215 
	C110.930161,72.609039 111.063614,68.821800 104.875076,69.111259 
	C102.457695,69.224335 101.292969,66.797493 101.315750,64.435295 
	C101.338943,62.030411 102.647034,60.337673 105.091957,59.818771 
	C106.055489,59.614281 107.080414,59.659107 108.077438,59.658424 
	C120.897957,59.649628 133.718658,59.688541 146.538910,59.629284 
	C149.846878,59.613995 152.768646,60.206345 153.115524,64.069214 
	C153.458267,67.886299 151.036423,69.362976 147.495712,69.419769 
	C144.830322,69.462524 144.209900,71.184540 144.225281,73.450485 
	C144.247910,76.780235 144.486221,80.136108 144.159729,83.434036 
	C143.695511,88.123108 145.287888,90.400665 150.611206,89.762016 
M124.914284,89.597031 
	C132.581955,89.691322 132.584320,89.691330 132.620667,82.093651 
	C132.632614,79.595665 132.412140,77.074112 132.679825,74.604729 
	C133.161026,70.165451 130.916595,69.406586 127.067467,69.320038 
	C122.797874,69.224037 122.006180,71.211617 122.220299,74.813599 
	C122.427475,78.298653 122.241844,81.805763 122.284271,85.302505 
	C122.303940,86.923439 121.977631,88.750648 124.914284,89.597031 
z"/>
<path fill="#000000" opacity="1.000000" stroke="none" 
	d="
M327.357208,66.202637 
	C339.193207,71.671783 344.521484,82.113487 342.126587,94.588585 
	C339.968933,105.827827 330.851227,113.231743 318.530426,113.749512 
	C307.075836,114.230873 297.120026,107.527504 293.908691,97.171379 
	C290.360229,85.728035 294.581818,73.713760 304.331848,67.991737 
	C311.528564,63.768188 319.180237,63.717388 327.357208,66.202637 
M307.723419,79.307098 
	C302.443207,88.267250 304.314636,98.418549 311.958038,102.277336 
	C317.695740,105.174026 324.556946,103.336792 328.233765,97.919189 
	C332.313782,91.907494 331.325134,82.415092 326.133636,77.755157 
	C320.935425,73.089195 314.226715,73.457062 307.723419,79.307098 
z"/>
<path fill="#000000" opacity="1.000000" stroke="none" 
	d="
M130.302429,143.829224 
	C121.357315,136.141083 118.892807,125.797012 123.344772,115.666687 
	C127.290955,106.687233 137.990005,101.184662 148.479340,102.238914 
	C158.195312,103.215431 165.861877,107.175774 169.632156,116.452896 
	C173.070877,124.914207 171.976883,133.143021 166.157501,140.411987 
	C158.630096,149.814438 142.419907,151.422791 130.302429,143.829224 
M150.403992,112.904213 
	C144.339645,111.338028 139.018433,112.651169 135.313538,117.781570 
	C132.144287,122.170227 132.265045,127.244873 134.552872,131.997818 
	C136.984589,137.049713 143.126831,139.602997 148.984833,138.488129 
	C154.762558,137.388535 158.824615,133.125076 159.577972,127.369789 
	C160.418686,120.947044 157.697571,116.370438 150.403992,112.904213 
z"/>
<path fill="#000000" opacity="1.000000" stroke="none" 
	d="
M401.077728,147.119568 
	C399.426727,147.119446 398.262482,147.135468 397.098816,147.116592 
	C387.487579,146.960754 384.674988,144.114182 384.651306,134.524185 
	C384.646362,132.528824 384.644684,130.533371 384.655609,128.538055 
	C384.702026,120.050758 387.370483,117.110481 395.933319,116.945190 
	C406.571472,116.739845 417.218262,116.748116 427.857574,116.910187 
	C436.307434,117.038902 438.740753,119.416466 439.741730,127.674316 
	C439.821686,128.333893 439.892395,128.995865 439.932404,129.658829 
	C440.795502,143.964523 437.818695,147.135498 423.513977,147.137680 
	C416.197571,147.138809 408.881165,147.126038 401.077728,147.119568 
M427.606567,134.942398 
	C428.164337,127.323189 428.164337,127.316811 420.793884,127.303955 
	C414.482208,127.292953 408.169281,127.374039 401.859406,127.266296 
	C398.561249,127.209976 396.190186,127.343628 396.123016,131.859970 
	C396.051483,136.671036 398.592712,136.844315 402.103149,136.720078 
	C406.084564,136.579132 410.087280,136.881332 414.057617,136.628189 
	C418.454529,136.347855 422.984802,137.798813 427.606567,134.942398 
z"/>
<path fill="#000000" opacity="1.000000" stroke="none" 
	d="
M42.960419,105.027901 
	C49.610435,104.251877 51.232151,105.631485 51.342670,111.709724 
	C51.360817,112.707748 51.343624,113.706360 51.348572,114.704681 
	C51.378727,120.792351 52.305355,121.517555 58.354656,120.932014 
	C60.852764,120.690224 61.890015,119.597908 61.957283,117.174797 
	C62.026329,114.687401 62.248394,112.202812 62.451660,109.720940 
	C62.725063,106.382736 64.443184,104.653618 67.916176,104.548828 
	C71.647697,104.436234 73.374702,106.419357 74.016068,109.777687 
	C74.109238,110.265572 74.132370,110.767708 74.174004,111.264420 
	C74.979843,120.877655 74.979927,120.845879 84.803886,121.003883 
	C86.951149,121.038414 89.141937,121.174660 91.225769,121.647270 
	C93.949516,122.265007 94.871445,124.463486 94.598259,127.000420 
	C94.345947,129.343445 93.037300,131.005035 90.473198,131.279617 
	C89.977676,131.332672 89.477257,131.364563 88.979088,131.364670 
	C67.681351,131.369156 46.383610,131.371948 25.085875,131.362015 
	C23.760702,131.361389 22.381409,131.415573 21.257927,130.536209 
	C19.722395,129.334305 18.814194,127.722687 19.080509,125.770508 
	C19.369392,123.652908 20.510405,122.149178 22.754393,121.549889 
	C25.708746,120.760864 28.704163,120.983063 31.688326,120.956398 
	C39.605896,120.885643 39.629562,120.909073 39.673973,113.157196 
	C39.691341,110.124565 39.539021,107.077232 42.960419,105.027901 
z"/>
<path fill="#000000" opacity="1.000000" stroke="none" 
	d="
M361.176880,143.502274 
	C354.718018,144.843338 352.273041,143.106903 352.239319,137.026138 
	C352.109253,113.556419 352.116211,90.085876 352.112579,66.615639 
	C352.112335,65.130875 352.361206,63.626404 352.661407,62.165474 
	C353.243835,59.331257 355.169220,57.905804 357.958008,57.770641 
	C360.793396,57.633217 362.798004,59.033211 363.577698,61.753143 
	C364.027374,63.321823 364.194336,65.020485 364.196777,66.661064 
	C364.230530,89.471748 364.214661,112.282494 364.208038,135.093231 
	C364.207184,138.108368 364.305634,141.161270 361.176880,143.502274 
z"/>
<path fill="#000000" opacity="1.000000" stroke="none" 
	d="
M81.877838,96.092834 
	C82.997643,96.537331 83.775688,96.831688 84.557991,97.114235 
	C88.002594,98.358315 89.241486,100.877014 88.091370,104.220764 
	C86.913605,107.644890 83.898041,107.883965 81.028786,107.030197 
	C74.196388,104.997177 68.385063,101.133408 63.319485,96.175262 
	C61.200848,94.101570 59.291504,91.814041 57.048439,89.363052 
	C53.027405,92.580353 50.453281,96.998466 46.290241,99.802238 
	C42.407108,102.417488 38.550190,104.982231 34.108139,106.545097 
	C30.715862,107.738632 27.328564,108.217720 25.610418,104.179932 
	C23.819542,99.971214 26.751085,98.155083 30.071896,96.766937 
	C37.288002,93.750496 43.622250,89.638199 47.578121,82.591499 
	C49.918545,78.422432 50.812523,73.964249 50.759995,69.177010 
	C50.701050,63.805168 52.854485,61.124645 56.749424,61.004601 
	C60.667992,60.883827 63.273785,63.644741 63.123604,68.848663 
	C62.731739,82.427017 70.318253,90.365623 81.877838,96.092834 
z"/>
<path fill="#000000" opacity="1.000000" stroke="none" 
	d="
M169.721146,102.716263 
	C163.763626,104.880859 160.383438,103.129410 160.211761,97.331367 
	C159.887924,86.393410 160.064682,75.436417 160.232864,64.490395 
	C160.292648,60.599781 162.044586,57.573380 166.526108,57.800560 
	C170.704803,58.012394 172.112823,61.056965 172.144089,64.698364 
	C172.236694,75.482903 172.183853,86.268913 172.141510,97.054169 
	C172.133530,99.087578 171.582550,100.991577 169.721146,102.716263 
z"/>
</svg>